<svg width="112" height="94" viewBox="0 0 112 94" fill="none" xmlns="http://www.w3.org/2000/svg">
<path d="M27.6 40H25.48C25.1333 40 24.96 39.84 24.96 39.52L25 36.76C22.6533 39.1067 19.52 40.28 15.6 40.28C11.7067 40.28 8.45333 38.92 5.84 36.2C3.22667 33.48 1.92 29.9067 1.92 25.48C1.92 22.52 2.57333 19.92 3.88 17.68C5.21333 15.44 6.89333 13.7733 8.92 12.68C10.9733 11.5867 13.1867 11.04 15.56 11.04C19.64 11.04 22.5733 12.3067 24.36 14.84L24.32 11.76C24.2667 11.44 24.4267 11.28 24.8 11.28H27.04C27.3867 11.28 27.56 11.44 27.56 11.76V20C27.56 20.32 27.3867 20.48 27.04 20.48H24.52C24.2 20.48 24.04 20.32 24.04 20V19.52C24.04 18.3467 23.2267 17.1867 21.6 16.04C20 14.8933 17.9467 14.32 15.44 14.32C12.9333 14.32 10.6667 15.36 8.64 17.44C6.64 19.4933 5.64 22.2533 5.64 25.72C5.64 29.16 6.65333 31.8933 8.68 33.92C10.7067 35.92 12.9733 36.92 15.48 36.92C17.9867 36.92 19.96 36.52 21.4 35.72C22.8667 34.92 23.96 33.9733 24.68 32.88V29.76H17.24C16.92 29.76 16.76 29.5867 16.76 29.24V27.4C16.76 27.08 16.92 26.92 17.24 26.92H27.6C27.92 26.92 28.08 27.08 28.08 27.4V39.52C28.08 39.84 27.92 40 27.6 40ZM49.4372 30.56H35.0372C35.1439 32.7733 35.8372 34.48 37.1172 35.68C38.4239 36.88 39.8905 37.48 41.5172 37.48C43.1439 37.48 44.5305 37.1333 45.6772 36.44C46.8505 35.7467 47.6372 35.0667 48.0372 34.4C48.2505 34.1333 48.4905 34.0933 48.7572 34.28L49.8372 35.36C49.9972 35.52 50.0772 35.6667 50.0772 35.8C50.0772 35.9067 50.0105 36.0533 49.8772 36.24C49.7705 36.4267 49.5305 36.72 49.1572 37.12C48.7839 37.52 48.2505 37.9733 47.5572 38.48C46.8905 38.9867 46.0105 39.4133 44.9172 39.76C43.8505 40.1067 42.7039 40.28 41.4772 40.28C38.6772 40.28 36.3305 39.36 34.4372 37.52C32.5705 35.68 31.6372 33.2133 31.6372 30.12C31.6372 27 32.5705 24.5467 34.4372 22.76C36.3039 20.9467 38.5839 20.04 41.2772 20.04C43.9972 20.04 46.1305 20.92 47.6772 22.68C49.2239 24.4133 49.9972 26.76 49.9972 29.72C49.9972 29.8267 49.9972 29.9333 49.9972 30.04C49.9972 30.3867 49.8105 30.56 49.4372 30.56ZM46.6772 28.12C46.5972 26.4667 46.0772 25.1467 45.1172 24.16C44.1572 23.1733 42.8772 22.68 41.2772 22.68C39.6772 22.68 38.3039 23.1333 37.1572 24.04C36.0105 24.9467 35.3305 26.3067 35.1172 28.12H46.6772Z" fill="white"/>
<path d="M27.6 83H25.48C25.1333 83 24.96 82.84 24.96 82.52L25 79.76C22.6533 82.1067 19.52 83.28 15.6 83.28C11.7067 83.28 8.45333 81.92 5.84 79.2C3.22667 76.48 1.92 72.9067 1.92 68.48C1.92 65.52 2.57333 62.92 3.88 60.68C5.21333 58.44 6.89333 56.7733 8.92 55.68C10.9733 54.5867 13.1867 54.04 15.56 54.04C19.64 54.04 22.5733 55.3067 24.36 57.84L24.32 54.76C24.2667 54.44 24.4267 54.28 24.8 54.28H27.04C27.3867 54.28 27.56 54.44 27.56 54.76V63C27.56 63.32 27.3867 63.48 27.04 63.48H24.52C24.2 63.48 24.04 63.32 24.04 63V62.52C24.04 61.3467 23.2267 60.1867 21.6 59.04C20 57.8933 17.9467 57.32 15.44 57.32C12.9333 57.32 10.6667 58.36 8.64 60.44C6.64 62.4933 5.64 65.2533 5.64 68.72C5.64 72.16 6.65333 74.8933 8.68 76.92C10.7067 78.92 12.9733 79.92 15.48 79.92C17.9867 79.92 19.96 79.52 21.4 78.72C22.8667 77.92 23.96 76.9733 24.68 75.88V72.76H17.24C16.92 72.76 16.76 72.5867 16.76 72.24V70.4C16.76 70.08 16.92 69.92 17.24 69.92H27.6C27.92 69.92 28.08 70.08 28.08 70.4V82.52C28.08 82.84 27.92 83 27.6 83ZM51.7069 83H48.2269C47.0802 83 46.5069 82.44 46.5069 81.32V79.28H46.4269C44.4802 81.9733 41.8802 83.32 38.6269 83.32C36.7069 83.32 35.1335 82.8267 33.9069 81.84C32.6802 80.8267 32.0669 79.4667 32.0669 77.76C32.0669 75.5733 33.0135 73.9733 34.9069 72.96C36.8269 71.92 39.4535 71.4 42.7869 71.4H46.1469V70.92C46.1469 67.5867 44.4135 65.92 40.9469 65.92C39.3202 65.92 38.1469 66.08 37.4269 66.4C36.7069 66.6933 36.1869 66.9333 35.8669 67.12C35.5735 67.3067 35.3469 67.4533 35.1869 67.56C34.7869 67.88 34.4935 67.9067 34.3069 67.64L33.1869 66.24C33.0002 66.0267 33.0269 65.8133 33.2669 65.6C33.7202 65.0133 34.6535 64.44 36.0669 63.88C37.4802 63.32 39.1469 63.04 41.0669 63.04C46.6669 63.04 49.4669 65.7067 49.4669 71.04V80.32H51.7069C52.0269 80.32 52.1869 80.48 52.1869 80.8V82.52C52.1869 82.84 52.0269 83 51.7069 83ZM46.1469 73.8H42.9869C41.4402 73.8 40.1602 73.88 39.1469 74.04C38.1335 74.2 37.2669 74.5467 36.5469 75.08C35.8535 75.6133 35.5069 76.3467 35.5069 77.28C35.5069 78.2133 35.8802 78.9867 36.6269 79.6C37.4002 80.1867 38.4002 80.48 39.6269 80.48C42.2135 80.48 44.3869 79.3333 46.1469 77.04V73.8ZM88.8719 83H85.0719C84.4585 83 84.0052 82.88 83.7119 82.64C83.4452 82.3733 83.3119 81.9333 83.3119 81.32V70.8C83.3119 69.2533 82.9385 68.0533 82.1919 67.2C81.4719 66.3467 80.3919 65.92 78.9519 65.92C76.8452 65.92 75.1919 66.84 73.9919 68.68C74.1519 69.16 74.2319 69.6933 74.2319 70.28V80.32H76.4719C76.7919 80.32 76.9519 80.48 76.9519 80.8V82.52C76.9519 82.84 76.7919 83 76.4719 83H68.8319C68.4852 83 68.3119 82.84 68.3119 82.52V80.8C68.3119 80.48 68.4852 80.32 68.8319 80.32H70.9519V70.8C70.9519 69.2533 70.5785 68.0533 69.8319 67.2C69.0852 66.3467 67.9919 65.92 66.5519 65.92C65.4585 65.92 64.6185 66.0933 64.0319 66.44C63.4719 66.76 63.0452 67.0533 62.7519 67.32C62.4585 67.56 62.2185 67.8 62.0319 68.04C61.7119 68.4667 61.4452 68.9067 61.2319 69.36V80.32H63.1919C63.5119 80.32 63.6719 80.48 63.6719 80.8V82.52C63.6719 82.84 63.5119 83 63.1919 83H55.7119C55.3652 83 55.1919 82.84 55.1919 82.52V80.8C55.1919 80.48 55.3652 80.32 55.7119 80.32H57.9119V66H55.7119C55.3652 66 55.1919 65.84 55.1919 65.52V63.8C55.1919 63.48 55.3652 63.32 55.7119 63.32H59.6319C60.0852 63.32 60.4052 63.4133 60.5919 63.6C60.8052 63.76 60.9119 64.0667 60.9119 64.52L60.8319 66.52H60.9519C62.3385 64.2 64.4852 63.04 67.3919 63.04C70.3252 63.04 72.3252 64.1467 73.3919 66.36C74.9119 64.1467 77.0585 63.04 79.8319 63.04C81.9652 63.04 83.6185 63.6667 84.7919 64.92C85.9919 66.1733 86.5919 67.8667 86.5919 70L86.6319 80.32H88.8719C89.2185 80.32 89.3919 80.48 89.3919 80.8V82.52C89.3919 82.84 89.2185 83 88.8719 83ZM109.164 73.56H94.7638C94.8704 75.7733 95.5638 77.48 96.8438 78.68C98.1504 79.88 99.6171 80.48 101.244 80.48C102.87 80.48 104.257 80.1333 105.404 79.44C106.577 78.7467 107.364 78.0667 107.764 77.4C107.977 77.1333 108.217 77.0933 108.484 77.28L109.564 78.36C109.724 78.52 109.804 78.6667 109.804 78.8C109.804 78.9067 109.737 79.0533 109.604 79.24C109.497 79.4267 109.257 79.72 108.884 80.12C108.51 80.52 107.977 80.9733 107.284 81.48C106.617 81.9867 105.737 82.4133 104.644 82.76C103.577 83.1067 102.43 83.28 101.204 83.28C98.4038 83.28 96.0571 82.36 94.1638 80.52C92.2971 78.68 91.3638 76.2133 91.3638 73.12C91.3638 70 92.2971 67.5467 94.1638 65.76C96.0304 63.9467 98.3104 63.04 101.004 63.04C103.724 63.04 105.857 63.92 107.404 65.68C108.95 67.4133 109.724 69.76 109.724 72.72C109.724 72.8267 109.724 72.9333 109.724 73.04C109.724 73.3867 109.537 73.56 109.164 73.56ZM106.404 71.12C106.324 69.4667 105.804 68.1467 104.844 67.16C103.884 66.1733 102.604 65.68 101.004 65.68C99.4038 65.68 98.0304 66.1333 96.8838 67.04C95.7371 67.9467 95.0571 69.3067 94.8438 71.12H106.404Z" fill="white"/>
<mask id="path-3-outside-1" maskUnits="userSpaceOnUse" x="54" y="15" width="26" height="26" fill="black">
<rect fill="white" x="54" y="15" width="26" height="26"/>
<path d="M66.9861 16C66.5559 16 66.126 16.0231 65.6983 16.0692C65.3062 16.1093 64.919 16.175 64.5369 16.2547C64.463 16.2701 64.389 16.2865 64.3151 16.3035C62.0641 16.8161 60.0088 17.967 58.3955 19.6184C58.2454 19.7722 58.0986 19.9306 57.955 20.0934C53.597 25.0971 54.12 32.6865 59.1232 37.0449C63.9131 41.2175 71.1231 40.9399 75.5781 36.4113C75.7284 36.2575 75.8752 36.0992 76.0185 35.9363C77.9418 33.7459 79.0017 30.9299 79 28.0149C79 21.3792 73.6212 15.9999 66.9861 16ZM58.9293 20.2192C58.9926 20.1535 59.0582 20.0906 59.1227 20.027C59.1972 19.9537 59.2713 19.88 59.3474 19.8091C59.4143 19.7466 59.4831 19.6865 59.5516 19.6257C59.6289 19.5572 59.7058 19.4887 59.7851 19.4226C59.8548 19.3637 59.9264 19.3073 59.9977 19.2504C60.0778 19.1863 60.1579 19.1222 60.2404 19.0606C60.3133 19.0057 60.3874 18.9524 60.4619 18.9004C60.5448 18.8411 60.628 18.7802 60.7125 18.7249C60.7882 18.6737 60.8647 18.624 60.9416 18.5747C61.0273 18.5199 61.1134 18.4658 61.2003 18.4145C61.2785 18.3678 61.3573 18.3219 61.4366 18.2768C61.5252 18.2263 61.6142 18.1771 61.7037 18.129C61.7838 18.0863 61.8638 18.0445 61.944 18.0036C62.0353 17.9576 62.1274 17.9131 62.2199 17.8695C62.3 17.8314 62.3833 17.7934 62.4657 17.7573C62.5599 17.7173 62.6552 17.6772 62.7505 17.6372C62.8334 17.6031 62.9159 17.5699 62.9996 17.5379C63.0965 17.501 63.1946 17.4666 63.2927 17.4321C63.3764 17.4029 63.4601 17.3737 63.545 17.346C63.6447 17.314 63.7452 17.2843 63.8462 17.2551C63.9306 17.2307 64.0143 17.2055 64.0992 17.1826C64.1317 17.1742 64.1641 17.1674 64.1965 17.159C63.0112 18.3101 62.1315 19.7386 61.6372 21.3154C60.6867 21.0646 59.7666 20.7105 58.8932 20.2592C58.9066 20.2453 58.9176 20.2312 58.9293 20.2192ZM58.3534 20.864C59.3154 21.3852 60.3354 21.7912 61.3925 22.0735C60.8743 23.8755 60.6023 25.7394 60.584 27.6144L55.7825 27.6144C55.8697 25.1419 56.7738 22.768 58.3534 20.864ZM58.3534 35.1658C56.7739 33.2617 55.8698 30.8879 55.7825 28.4154L60.584 28.4154C60.6023 30.2904 60.8743 32.1542 61.3925 33.9563C60.3355 34.2386 59.3154 34.6446 58.3534 35.1658ZM64.0968 38.8488C64.0159 38.8283 63.9322 38.8019 63.849 38.7774C63.7476 38.7478 63.6459 38.7182 63.5458 38.6857C63.4613 38.6585 63.378 38.6293 63.2947 38.6C63.1962 38.566 63.0977 38.5311 63.0004 38.4939C62.9171 38.4622 62.835 38.429 62.7525 38.3954C62.6568 38.3554 62.5611 38.3153 62.4661 38.2752C62.3845 38.2392 62.3032 38.202 62.2223 38.1639C62.129 38.1198 62.0361 38.0749 61.942 38.0285C61.8618 37.9885 61.7817 37.9485 61.7017 37.9047C61.6112 37.8562 61.5215 37.8066 61.4318 37.7553C61.3517 37.7108 61.276 37.6645 61.1981 37.6191C61.1103 37.5657 61.0235 37.5118 60.937 37.4561C60.861 37.4076 60.7849 37.3583 60.71 37.3079C60.6247 37.2502 60.5403 37.1901 60.4565 37.13C60.3832 37.0776 60.31 37.0251 60.2379 36.9698C60.155 36.9073 60.0737 36.8429 59.9928 36.778C59.9219 36.7216 59.8514 36.6655 59.7821 36.6074C59.702 36.5409 59.6248 36.4716 59.5471 36.4027C59.479 36.3422 59.4105 36.2826 59.344 36.2209C59.2675 36.1496 59.1935 36.0755 59.119 36.0022C59.0545 35.9385 58.9888 35.8757 58.9256 35.8104C58.9139 35.7981 58.9028 35.7851 58.8911 35.7732C59.7644 35.3217 60.6845 34.9675 61.6351 34.7167C62.1295 36.2933 63.0091 37.7219 64.1944 38.8731C64.162 38.8646 64.1293 38.8576 64.0968 38.8488ZM66.5857 39.1972C64.8721 38.9537 63.37 37.165 62.4249 34.5238C63.7913 34.2178 65.1856 34.0536 66.5857 34.034L66.5857 39.1972ZM66.5857 33.233C65.1005 33.2525 63.6215 33.4289 62.1734 33.7592C61.6706 32.0217 61.4053 30.2241 61.3849 28.4154L66.5857 28.4154L66.5857 33.233ZM66.5857 27.6144L61.3849 27.6144C61.4053 25.8057 61.6705 24.0081 62.1734 22.2705C63.6215 22.6008 65.1005 22.7772 66.5857 22.7968L66.5857 27.6144ZM66.5857 21.9958C65.1856 21.9763 63.7913 21.8121 62.4249 21.506C63.37 18.8647 64.8721 17.0761 66.5857 16.8326V21.9958ZM75.6189 20.864C77.1984 22.7681 78.1025 25.1419 78.1899 27.6144L73.3883 27.6144C73.37 25.7394 73.098 23.8755 72.5798 22.0735C73.6368 21.7911 74.6569 21.3851 75.6189 20.864ZM69.8723 17.1806C69.9564 17.2014 70.0401 17.2279 70.1234 17.2523C70.2247 17.2819 70.3264 17.3116 70.4265 17.344C70.511 17.3713 70.5943 17.4005 70.6776 17.4297C70.7761 17.4638 70.8746 17.4986 70.9719 17.5359C71.0552 17.5675 71.1373 17.6007 71.2198 17.6344C71.3155 17.6744 71.4112 17.7145 71.5062 17.7545C71.5879 17.7906 71.6692 17.8277 71.75 17.8659C71.8433 17.9099 71.9363 17.9548 72.0304 18.0012C72.1105 18.0413 72.1906 18.0813 72.2706 18.125C72.3611 18.1735 72.4509 18.2231 72.5406 18.2744C72.6207 18.3188 72.6968 18.3645 72.7741 18.4109C72.8622 18.4637 72.9487 18.5182 73.0352 18.5739C73.1112 18.6223 73.1873 18.6716 73.2622 18.7221C73.3475 18.7797 73.4316 18.8394 73.5153 18.8995C73.589 18.9519 73.6623 19.0048 73.7348 19.0597C73.8173 19.1218 73.8982 19.1862 73.9794 19.2511C74.0499 19.3072 74.1208 19.3633 74.1901 19.4217C74.2702 19.4882 74.3475 19.5575 74.4252 19.6264C74.4933 19.6869 74.5617 19.7465 74.6282 19.8082C74.7047 19.8795 74.7788 19.9536 74.8532 20.0269C74.9177 20.0906 74.9834 20.1534 75.0467 20.2187C75.0583 20.2311 75.0695 20.244 75.0811 20.256C74.2079 20.7074 73.2877 21.0617 72.3372 21.3125C71.8418 19.7356 70.961 18.3072 69.7746 17.1565C69.807 17.1649 69.8399 17.1718 69.8723 17.1806ZM67.3866 16.8326C69.1002 17.0761 70.6023 18.8647 71.5474 21.506C70.181 21.812 68.7867 21.9761 67.3866 21.9958V16.8326ZM67.3866 22.7968C68.8718 22.7773 70.3508 22.6008 71.7989 22.2705C72.3017 24.008 72.567 25.8057 72.5874 27.6144H67.3866V22.7968ZM67.3866 28.4154H72.5874C72.567 30.2241 72.3018 32.0217 71.7989 33.7592C70.3508 33.429 68.8718 33.2525 67.3866 33.233V28.4154ZM67.3866 39.1972L67.3866 34.034C68.7867 34.0535 70.181 34.2176 71.5474 34.5238C70.6023 37.1651 69.1002 38.9537 67.3866 39.1972ZM75.043 35.8106C74.9798 35.8758 74.9145 35.9387 74.85 36.0024C74.7755 36.0757 74.701 36.1498 74.6245 36.2211C74.5581 36.2832 74.4896 36.3412 74.4215 36.4033C74.3438 36.4722 74.2666 36.5411 74.1872 36.6075C74.1172 36.666 74.0459 36.7225 73.9746 36.7794C73.8945 36.8434 73.8144 36.9075 73.7319 36.9692C73.659 37.0241 73.585 37.0773 73.5105 37.1294C73.4276 37.1887 73.3443 37.2496 73.2598 37.3048C73.1841 37.3561 73.1076 37.4058 73.0307 37.4546C72.945 37.5099 72.8587 37.5633 72.7716 37.6148C72.6915 37.6617 72.615 37.7073 72.5361 37.7526C72.4475 37.803 72.3583 37.8523 72.2686 37.9004C72.1886 37.9431 72.1085 37.9849 72.0284 38.0257C71.9371 38.0718 71.845 38.1162 71.7524 38.1599C71.6724 38.1979 71.5891 38.236 71.5066 38.272C71.4125 38.3121 71.3171 38.3521 71.2218 38.3922C71.139 38.4258 71.0564 38.4595 70.9732 38.4911C70.8754 38.5284 70.7773 38.5632 70.6788 38.5972C70.5955 38.6265 70.5122 38.6557 70.4277 38.6829C70.3276 38.7154 70.2275 38.745 70.1254 38.7742C70.0417 38.7991 69.9576 38.8239 69.8731 38.8467C69.8406 38.8552 69.8082 38.8619 69.7758 38.8704C70.9611 37.7193 71.8408 36.2907 72.3351 34.714C73.2856 34.9647 74.2058 35.3189 75.0791 35.7701C75.0657 35.7845 75.0547 35.7986 75.043 35.8106ZM75.6189 35.1658C74.6569 34.6445 73.6369 34.2385 72.5798 33.9563C73.098 32.1542 73.37 30.2904 73.3883 28.4154L78.1899 28.4154C78.1027 30.8878 77.1985 33.2617 75.6189 35.1658Z"/>
</mask>
<path d="M66.9861 16C66.5559 16 66.126 16.0231 65.6983 16.0692C65.3062 16.1093 64.919 16.175 64.5369 16.2547C64.463 16.2701 64.389 16.2865 64.3151 16.3035C62.0641 16.8161 60.0088 17.967 58.3955 19.6184C58.2454 19.7722 58.0986 19.9306 57.955 20.0934C53.597 25.0971 54.12 32.6865 59.1232 37.0449C63.9131 41.2175 71.1231 40.9399 75.5781 36.4113C75.7284 36.2575 75.8752 36.0992 76.0185 35.9363C77.9418 33.7459 79.0017 30.9299 79 28.0149C79 21.3792 73.6212 15.9999 66.9861 16ZM58.9293 20.2192C58.9926 20.1535 59.0582 20.0906 59.1227 20.027C59.1972 19.9537 59.2713 19.88 59.3474 19.8091C59.4143 19.7466 59.4831 19.6865 59.5516 19.6257C59.6289 19.5572 59.7058 19.4887 59.7851 19.4226C59.8548 19.3637 59.9264 19.3073 59.9977 19.2504C60.0778 19.1863 60.1579 19.1222 60.2404 19.0606C60.3133 19.0057 60.3874 18.9524 60.4619 18.9004C60.5448 18.8411 60.628 18.7802 60.7125 18.7249C60.7882 18.6737 60.8647 18.624 60.9416 18.5747C61.0273 18.5199 61.1134 18.4658 61.2003 18.4145C61.2785 18.3678 61.3573 18.3219 61.4366 18.2768C61.5252 18.2263 61.6142 18.1771 61.7037 18.129C61.7838 18.0863 61.8638 18.0445 61.944 18.0036C62.0353 17.9576 62.1274 17.9131 62.2199 17.8695C62.3 17.8314 62.3833 17.7934 62.4657 17.7573C62.5599 17.7173 62.6552 17.6772 62.7505 17.6372C62.8334 17.6031 62.9159 17.5699 62.9996 17.5379C63.0965 17.501 63.1946 17.4666 63.2927 17.4321C63.3764 17.4029 63.4601 17.3737 63.545 17.346C63.6447 17.314 63.7452 17.2843 63.8462 17.2551C63.9306 17.2307 64.0143 17.2055 64.0992 17.1826C64.1317 17.1742 64.1641 17.1674 64.1965 17.159C63.0112 18.3101 62.1315 19.7386 61.6372 21.3154C60.6867 21.0646 59.7666 20.7105 58.8932 20.2592C58.9066 20.2453 58.9176 20.2312 58.9293 20.2192ZM58.3534 20.864C59.3154 21.3852 60.3354 21.7912 61.3925 22.0735C60.8743 23.8755 60.6023 25.7394 60.584 27.6144L55.7825 27.6144C55.8697 25.1419 56.7738 22.768 58.3534 20.864ZM58.3534 35.1658C56.7739 33.2617 55.8698 30.8879 55.7825 28.4154L60.584 28.4154C60.6023 30.2904 60.8743 32.1542 61.3925 33.9563C60.3355 34.2386 59.3154 34.6446 58.3534 35.1658ZM64.0968 38.8488C64.0159 38.8283 63.9322 38.8019 63.849 38.7774C63.7476 38.7478 63.6459 38.7182 63.5458 38.6857C63.4613 38.6585 63.378 38.6293 63.2947 38.6C63.1962 38.566 63.0977 38.5311 63.0004 38.4939C62.9171 38.4622 62.835 38.429 62.7525 38.3954C62.6568 38.3554 62.5611 38.3153 62.4661 38.2752C62.3845 38.2392 62.3032 38.202 62.2223 38.1639C62.129 38.1198 62.0361 38.0749 61.942 38.0285C61.8618 37.9885 61.7817 37.9485 61.7017 37.9047C61.6112 37.8562 61.5215 37.8066 61.4318 37.7553C61.3517 37.7108 61.276 37.6645 61.1981 37.6191C61.1103 37.5657 61.0235 37.5118 60.937 37.4561C60.861 37.4076 60.7849 37.3583 60.71 37.3079C60.6247 37.2502 60.5403 37.1901 60.4565 37.13C60.3832 37.0776 60.31 37.0251 60.2379 36.9698C60.155 36.9073 60.0737 36.8429 59.9928 36.778C59.9219 36.7216 59.8514 36.6655 59.7821 36.6074C59.702 36.5409 59.6248 36.4716 59.5471 36.4027C59.479 36.3422 59.4105 36.2826 59.344 36.2209C59.2675 36.1496 59.1935 36.0755 59.119 36.0022C59.0545 35.9385 58.9888 35.8757 58.9256 35.8104C58.9139 35.7981 58.9028 35.7851 58.8911 35.7732C59.7644 35.3217 60.6845 34.9675 61.6351 34.7167C62.1295 36.2933 63.0091 37.7219 64.1944 38.8731C64.162 38.8646 64.1293 38.8576 64.0968 38.8488ZM66.5857 39.1972C64.8721 38.9537 63.37 37.165 62.4249 34.5238C63.7913 34.2178 65.1856 34.0536 66.5857 34.034L66.5857 39.1972ZM66.5857 33.233C65.1005 33.2525 63.6215 33.4289 62.1734 33.7592C61.6706 32.0217 61.4053 30.2241 61.3849 28.4154L66.5857 28.4154L66.5857 33.233ZM66.5857 27.6144L61.3849 27.6144C61.4053 25.8057 61.6705 24.0081 62.1734 22.2705C63.6215 22.6008 65.1005 22.7772 66.5857 22.7968L66.5857 27.6144ZM66.5857 21.9958C65.1856 21.9763 63.7913 21.8121 62.4249 21.506C63.37 18.8647 64.8721 17.0761 66.5857 16.8326V21.9958ZM75.6189 20.864C77.1984 22.7681 78.1025 25.1419 78.1899 27.6144L73.3883 27.6144C73.37 25.7394 73.098 23.8755 72.5798 22.0735C73.6368 21.7911 74.6569 21.3851 75.6189 20.864ZM69.8723 17.1806C69.9564 17.2014 70.0401 17.2279 70.1234 17.2523C70.2247 17.2819 70.3264 17.3116 70.4265 17.344C70.511 17.3713 70.5943 17.4005 70.6776 17.4297C70.7761 17.4638 70.8746 17.4986 70.9719 17.5359C71.0552 17.5675 71.1373 17.6007 71.2198 17.6344C71.3155 17.6744 71.4112 17.7145 71.5062 17.7545C71.5879 17.7906 71.6692 17.8277 71.75 17.8659C71.8433 17.9099 71.9363 17.9548 72.0304 18.0012C72.1105 18.0413 72.1906 18.0813 72.2706 18.125C72.3611 18.1735 72.4509 18.2231 72.5406 18.2744C72.6207 18.3188 72.6968 18.3645 72.7741 18.4109C72.8622 18.4637 72.9487 18.5182 73.0352 18.5739C73.1112 18.6223 73.1873 18.6716 73.2622 18.7221C73.3475 18.7797 73.4316 18.8394 73.5153 18.8995C73.589 18.9519 73.6623 19.0048 73.7348 19.0597C73.8173 19.1218 73.8982 19.1862 73.9794 19.2511C74.0499 19.3072 74.1208 19.3633 74.1901 19.4217C74.2702 19.4882 74.3475 19.5575 74.4252 19.6264C74.4933 19.6869 74.5617 19.7465 74.6282 19.8082C74.7047 19.8795 74.7788 19.9536 74.8532 20.0269C74.9177 20.0906 74.9834 20.1534 75.0467 20.2187C75.0583 20.2311 75.0695 20.244 75.0811 20.256C74.2079 20.7074 73.2877 21.0617 72.3372 21.3125C71.8418 19.7356 70.961 18.3072 69.7746 17.1565C69.807 17.1649 69.8399 17.1718 69.8723 17.1806ZM67.3866 16.8326C69.1002 17.0761 70.6023 18.8647 71.5474 21.506C70.181 21.812 68.7867 21.9761 67.3866 21.9958V16.8326ZM67.3866 22.7968C68.8718 22.7773 70.3508 22.6008 71.7989 22.2705C72.3017 24.008 72.567 25.8057 72.5874 27.6144H67.3866V22.7968ZM67.3866 28.4154H72.5874C72.567 30.2241 72.3018 32.0217 71.7989 33.7592C70.3508 33.429 68.8718 33.2525 67.3866 33.233V28.4154ZM67.3866 39.1972L67.3866 34.034C68.7867 34.0535 70.181 34.2176 71.5474 34.5238C70.6023 37.1651 69.1002 38.9537 67.3866 39.1972ZM75.043 35.8106C74.9798 35.8758 74.9145 35.9387 74.85 36.0024C74.7755 36.0757 74.701 36.1498 74.6245 36.2211C74.5581 36.2832 74.4896 36.3412 74.4215 36.4033C74.3438 36.4722 74.2666 36.5411 74.1872 36.6075C74.1172 36.666 74.0459 36.7225 73.9746 36.7794C73.8945 36.8434 73.8144 36.9075 73.7319 36.9692C73.659 37.0241 73.585 37.0773 73.5105 37.1294C73.4276 37.1887 73.3443 37.2496 73.2598 37.3048C73.1841 37.3561 73.1076 37.4058 73.0307 37.4546C72.945 37.5099 72.8587 37.5633 72.7716 37.6148C72.6915 37.6617 72.615 37.7073 72.5361 37.7526C72.4475 37.803 72.3583 37.8523 72.2686 37.9004C72.1886 37.9431 72.1085 37.9849 72.0284 38.0257C71.9371 38.0718 71.845 38.1162 71.7524 38.1599C71.6724 38.1979 71.5891 38.236 71.5066 38.272C71.4125 38.3121 71.3171 38.3521 71.2218 38.3922C71.139 38.4258 71.0564 38.4595 70.9732 38.4911C70.8754 38.5284 70.7773 38.5632 70.6788 38.5972C70.5955 38.6265 70.5122 38.6557 70.4277 38.6829C70.3276 38.7154 70.2275 38.745 70.1254 38.7742C70.0417 38.7991 69.9576 38.8239 69.8731 38.8467C69.8406 38.8552 69.8082 38.8619 69.7758 38.8704C70.9611 37.7193 71.8408 36.2907 72.3351 34.714C73.2856 34.9647 74.2058 35.3189 75.0791 35.7701C75.0657 35.7845 75.0547 35.7986 75.043 35.8106ZM75.6189 35.1658C74.6569 34.6445 73.6369 34.2385 72.5798 33.9563C73.098 32.1542 73.37 30.2904 73.3883 28.4154L78.1899 28.4154C78.1027 30.8878 77.1985 33.2617 75.6189 35.1658Z" fill="white"/>
<path d="M66.9861 16C66.5559 16 66.126 16.0231 65.6983 16.0692C65.3062 16.1093 64.919 16.175 64.5369 16.2547C64.463 16.2701 64.389 16.2865 64.3151 16.3035C62.0641 16.8161 60.0088 17.967 58.3955 19.6184C58.2454 19.7722 58.0986 19.9306 57.955 20.0934C53.597 25.0971 54.12 32.6865 59.1232 37.0449C63.9131 41.2175 71.1231 40.9399 75.5781 36.4113C75.7284 36.2575 75.8752 36.0992 76.0185 35.9363C77.9418 33.7459 79.0017 30.9299 79 28.0149C79 21.3792 73.6212 15.9999 66.9861 16ZM58.9293 20.2192C58.9926 20.1535 59.0582 20.0906 59.1227 20.027C59.1972 19.9537 59.2713 19.88 59.3474 19.8091C59.4143 19.7466 59.4831 19.6865 59.5516 19.6257C59.6289 19.5572 59.7058 19.4887 59.7851 19.4226C59.8548 19.3637 59.9264 19.3073 59.9977 19.2504C60.0778 19.1863 60.1579 19.1222 60.2404 19.0606C60.3133 19.0057 60.3874 18.9524 60.4619 18.9004C60.5448 18.8411 60.628 18.7802 60.7125 18.7249C60.7882 18.6737 60.8647 18.624 60.9416 18.5747C61.0273 18.5199 61.1134 18.4658 61.2003 18.4145C61.2785 18.3678 61.3573 18.3219 61.4366 18.2768C61.5252 18.2263 61.6142 18.1771 61.7037 18.129C61.7838 18.0863 61.8638 18.0445 61.944 18.0036C62.0353 17.9576 62.1274 17.9131 62.2199 17.8695C62.3 17.8314 62.3833 17.7934 62.4657 17.7573C62.5599 17.7173 62.6552 17.6772 62.7505 17.6372C62.8334 17.6031 62.9159 17.5699 62.9996 17.5379C63.0965 17.501 63.1946 17.4666 63.2927 17.4321C63.3764 17.4029 63.4601 17.3737 63.545 17.346C63.6447 17.314 63.7452 17.2843 63.8462 17.2551C63.9306 17.2307 64.0143 17.2055 64.0992 17.1826C64.1317 17.1742 64.1641 17.1674 64.1965 17.159C63.0112 18.3101 62.1315 19.7386 61.6372 21.3154C60.6867 21.0646 59.7666 20.7105 58.8932 20.2592C58.9066 20.2453 58.9176 20.2312 58.9293 20.2192ZM58.3534 20.864C59.3154 21.3852 60.3354 21.7912 61.3925 22.0735C60.8743 23.8755 60.6023 25.7394 60.584 27.6144L55.7825 27.6144C55.8697 25.1419 56.7738 22.768 58.3534 20.864ZM58.3534 35.1658C56.7739 33.2617 55.8698 30.8879 55.7825 28.4154L60.584 28.4154C60.6023 30.2904 60.8743 32.1542 61.3925 33.9563C60.3355 34.2386 59.3154 34.6446 58.3534 35.1658ZM64.0968 38.8488C64.0159 38.8283 63.9322 38.8019 63.849 38.7774C63.7476 38.7478 63.6459 38.7182 63.5458 38.6857C63.4613 38.6585 63.378 38.6293 63.2947 38.6C63.1962 38.566 63.0977 38.5311 63.0004 38.4939C62.9171 38.4622 62.835 38.429 62.7525 38.3954C62.6568 38.3554 62.5611 38.3153 62.4661 38.2752C62.3845 38.2392 62.3032 38.202 62.2223 38.1639C62.129 38.1198 62.0361 38.0749 61.942 38.0285C61.8618 37.9885 61.7817 37.9485 61.7017 37.9047C61.6112 37.8562 61.5215 37.8066 61.4318 37.7553C61.3517 37.7108 61.276 37.6645 61.1981 37.6191C61.1103 37.5657 61.0235 37.5118 60.937 37.4561C60.861 37.4076 60.7849 37.3583 60.71 37.3079C60.6247 37.2502 60.5403 37.1901 60.4565 37.13C60.3832 37.0776 60.31 37.0251 60.2379 36.9698C60.155 36.9073 60.0737 36.8429 59.9928 36.778C59.9219 36.7216 59.8514 36.6655 59.7821 36.6074C59.702 36.5409 59.6248 36.4716 59.5471 36.4027C59.479 36.3422 59.4105 36.2826 59.344 36.2209C59.2675 36.1496 59.1935 36.0755 59.119 36.0022C59.0545 35.9385 58.9888 35.8757 58.9256 35.8104C58.9139 35.7981 58.9028 35.7851 58.8911 35.7732C59.7644 35.3217 60.6845 34.9675 61.6351 34.7167C62.1295 36.2933 63.0091 37.7219 64.1944 38.8731C64.162 38.8646 64.1293 38.8576 64.0968 38.8488ZM66.5857 39.1972C64.8721 38.9537 63.37 37.165 62.4249 34.5238C63.7913 34.2178 65.1856 34.0536 66.5857 34.034L66.5857 39.1972ZM66.5857 33.233C65.1005 33.2525 63.6215 33.4289 62.1734 33.7592C61.6706 32.0217 61.4053 30.2241 61.3849 28.4154L66.5857 28.4154L66.5857 33.233ZM66.5857 27.6144L61.3849 27.6144C61.4053 25.8057 61.6705 24.0081 62.1734 22.2705C63.6215 22.6008 65.1005 22.7772 66.5857 22.7968L66.5857 27.6144ZM66.5857 21.9958C65.1856 21.9763 63.7913 21.8121 62.4249 21.506C63.37 18.8647 64.8721 17.0761 66.5857 16.8326V21.9958ZM75.6189 20.864C77.1984 22.7681 78.1025 25.1419 78.1899 27.6144L73.3883 27.6144C73.37 25.7394 73.098 23.8755 72.5798 22.0735C73.6368 21.7911 74.6569 21.3851 75.6189 20.864ZM69.8723 17.1806C69.9564 17.2014 70.0401 17.2279 70.1234 17.2523C70.2247 17.2819 70.3264 17.3116 70.4265 17.344C70.511 17.3713 70.5943 17.4005 70.6776 17.4297C70.7761 17.4638 70.8746 17.4986 70.9719 17.5359C71.0552 17.5675 71.1373 17.6007 71.2198 17.6344C71.3155 17.6744 71.4112 17.7145 71.5062 17.7545C71.5879 17.7906 71.6692 17.8277 71.75 17.8659C71.8433 17.9099 71.9363 17.9548 72.0304 18.0012C72.1105 18.0413 72.1906 18.0813 72.2706 18.125C72.3611 18.1735 72.4509 18.2231 72.5406 18.2744C72.6207 18.3188 72.6968 18.3645 72.7741 18.4109C72.8622 18.4637 72.9487 18.5182 73.0352 18.5739C73.1112 18.6223 73.1873 18.6716 73.2622 18.7221C73.3475 18.7797 73.4316 18.8394 73.5153 18.8995C73.589 18.9519 73.6623 19.0048 73.7348 19.0597C73.8173 19.1218 73.8982 19.1862 73.9794 19.2511C74.0499 19.3072 74.1208 19.3633 74.1901 19.4217C74.2702 19.4882 74.3475 19.5575 74.4252 19.6264C74.4933 19.6869 74.5617 19.7465 74.6282 19.8082C74.7047 19.8795 74.7788 19.9536 74.8532 20.0269C74.9177 20.0906 74.9834 20.1534 75.0467 20.2187C75.0583 20.2311 75.0695 20.244 75.0811 20.256C74.2079 20.7074 73.2877 21.0617 72.3372 21.3125C71.8418 19.7356 70.961 18.3072 69.7746 17.1565C69.807 17.1649 69.8399 17.1718 69.8723 17.1806ZM67.3866 16.8326C69.1002 17.0761 70.6023 18.8647 71.5474 21.506C70.181 21.812 68.7867 21.9761 67.3866 21.9958V16.8326ZM67.3866 22.7968C68.8718 22.7773 70.3508 22.6008 71.7989 22.2705C72.3017 24.008 72.567 25.8057 72.5874 27.6144H67.3866V22.7968ZM67.3866 28.4154H72.5874C72.567 30.2241 72.3018 32.0217 71.7989 33.7592C70.3508 33.429 68.8718 33.2525 67.3866 33.233V28.4154ZM67.3866 39.1972L67.3866 34.034C68.7867 34.0535 70.181 34.2176 71.5474 34.5238C70.6023 37.1651 69.1002 38.9537 67.3866 39.1972ZM75.043 35.8106C74.9798 35.8758 74.9145 35.9387 74.85 36.0024C74.7755 36.0757 74.701 36.1498 74.6245 36.2211C74.5581 36.2832 74.4896 36.3412 74.4215 36.4033C74.3438 36.4722 74.2666 36.5411 74.1872 36.6075C74.1172 36.666 74.0459 36.7225 73.9746 36.7794C73.8945 36.8434 73.8144 36.9075 73.7319 36.9692C73.659 37.0241 73.585 37.0773 73.5105 37.1294C73.4276 37.1887 73.3443 37.2496 73.2598 37.3048C73.1841 37.3561 73.1076 37.4058 73.0307 37.4546C72.945 37.5099 72.8587 37.5633 72.7716 37.6148C72.6915 37.6617 72.615 37.7073 72.5361 37.7526C72.4475 37.803 72.3583 37.8523 72.2686 37.9004C72.1886 37.9431 72.1085 37.9849 72.0284 38.0257C71.9371 38.0718 71.845 38.1162 71.7524 38.1599C71.6724 38.1979 71.5891 38.236 71.5066 38.272C71.4125 38.3121 71.3171 38.3521 71.2218 38.3922C71.139 38.4258 71.0564 38.4595 70.9732 38.4911C70.8754 38.5284 70.7773 38.5632 70.6788 38.5972C70.5955 38.6265 70.5122 38.6557 70.4277 38.6829C70.3276 38.7154 70.2275 38.745 70.1254 38.7742C70.0417 38.7991 69.9576 38.8239 69.8731 38.8467C69.8406 38.8552 69.8082 38.8619 69.7758 38.8704C70.9611 37.7193 71.8408 36.2907 72.3351 34.714C73.2856 34.9647 74.2058 35.3189 75.0791 35.7701C75.0657 35.7845 75.0547 35.7986 75.043 35.8106ZM75.6189 35.1658C74.6569 34.6445 73.6369 34.2385 72.5798 33.9563C73.098 32.1542 73.37 30.2904 73.3883 28.4154L78.1899 28.4154C78.1027 30.8878 77.1985 33.2617 75.6189 35.1658Z" stroke="white" stroke-width="0.4" mask="url(#path-3-outside-1)"/>
</svg>
