<svg width="120" height="130" viewBox="0 0 120 130" fill="none" xmlns="http://www.w3.org/2000/svg">
<g clip-path="url(#clip0)">
<path d="M65.1031 11.1755C65.4286 11.718 65.6999 12.1927 65.9169 12.5995C66.1429 13.0064 66.3735 13.463 66.6085 13.9694H66.7849C66.7397 13.4178 66.699 12.3238 66.6628 10.6872C66.6266 9.04165 66.6085 7.55882 66.6085 6.23874V3.39062C66.6085 2.76675 66.5905 2.31014 66.5543 2.02081C66.5181 1.73148 66.4503 1.50996 66.3509 1.35625C66.2604 1.20254 66.1293 1.08048 65.9576 0.990061C65.7948 0.890604 65.5055 0.782104 65.0896 0.664562V0H69.972V0.664562C69.5652 0.773063 69.2758 0.87252 69.104 0.962937C68.9413 1.05335 68.8057 1.17089 68.6972 1.31556C68.5977 1.46023 68.5208 1.67722 68.4666 1.96656C68.4123 2.25589 68.3852 2.73058 68.3852 3.39062V18.5942H66.6899L59.1356 5.9268C58.6655 5.14018 58.3309 4.56603 58.132 4.20437C57.9331 3.8427 57.7477 3.48556 57.5759 3.13293H57.3454C57.4087 3.82914 57.4539 5.09045 57.481 6.91686C57.5081 8.73423 57.5217 10.5471 57.5217 12.3554V15.1222C57.5217 15.728 57.5398 16.171 57.576 16.4513C57.6212 16.7316 57.689 16.9531 57.7794 17.1158C57.8789 17.2786 58.019 17.4142 58.1998 17.5227C58.3897 17.6312 58.6926 17.7397 59.1085 17.8482V18.5128H54.1582V17.8482C54.7188 17.7036 55.094 17.5453 55.2839 17.3735C55.4738 17.1927 55.5958 16.9395 55.6501 16.614C55.7134 16.2885 55.745 15.7912 55.745 15.1222V3.39062C55.745 2.76674 55.7224 2.31466 55.6772 2.03437C55.632 1.74504 55.5551 1.52352 55.4466 1.36981C55.3472 1.20706 55.2116 1.08048 55.0398 0.990059C54.868 0.890602 54.5741 0.782102 54.1582 0.66456V0H58.4033L65.1031 11.1755Z" fill="black"/>
<path d="M57.9627 124.584C58.1435 125.38 58.3876 126.008 58.6951 126.469C59.0025 126.931 59.4003 127.274 59.8886 127.5C60.3768 127.717 61.0052 127.826 61.7737 127.826C62.8316 127.826 63.6408 127.55 64.2014 126.998C64.771 126.447 65.0559 125.642 65.0559 124.584C65.0559 123.906 64.9383 123.336 64.7032 122.875C64.4681 122.414 64.0838 121.98 63.5504 121.573C63.017 121.166 62.2032 120.692 61.1092 120.149C60.0513 119.625 59.215 119.114 58.6001 118.617C57.9853 118.11 57.5242 117.563 57.2168 116.976C56.9184 116.388 56.7692 115.746 56.7692 115.05C56.7692 114.037 57.0043 113.16 57.4744 112.419C57.9536 111.668 58.6499 111.09 59.5631 110.683C60.4853 110.276 61.5387 110.072 62.7231 110.072C63.4103 110.072 64.0794 110.109 64.7304 110.181C65.3904 110.253 66.2132 110.416 67.1987 110.669V114.331H65.856C65.6481 113.535 65.3859 112.916 65.0694 112.473C64.753 112.03 64.3823 111.722 63.9573 111.551C63.5323 111.37 62.9808 111.279 62.3027 111.279C61.715 111.279 61.186 111.388 60.7159 111.605C60.2547 111.822 59.8886 112.152 59.6173 112.595C59.3461 113.029 59.2104 113.549 59.2104 114.155C59.2104 114.797 59.3235 115.339 59.5495 115.782C59.7846 116.225 60.1462 116.637 60.6345 117.016C61.1227 117.396 61.8461 117.821 62.8045 118.291C63.9618 118.87 64.8569 119.408 65.4899 119.905C66.1318 120.403 66.6291 120.972 66.9817 121.614C67.3434 122.247 67.5242 122.988 67.5242 123.838C67.5242 124.788 67.375 125.592 67.0767 126.252C66.7783 126.903 66.3624 127.437 65.8289 127.853C65.3045 128.26 64.6716 128.558 63.9302 128.748C63.1978 128.929 62.3931 129.019 61.5161 129.019C60.0965 129.019 58.46 128.78 56.6064 128.3V124.584L57.9627 124.584Z" fill="black"/>
<path d="M99.8563 62.087L78.2161 56.1416L85.5656 43.2216C86.0155 42.43 85.8822 41.4342 85.2406 40.7926C84.5948 40.1468 83.5949 40.0135 82.8074 40.4635L69.9624 47.7713L63.9837 26.0144C63.7462 25.1353 62.9462 24.527 62.0338 24.527C61.1255 24.527 60.3256 25.1353 60.0839 26.0144L54.1468 47.6171L41.5893 40.476C40.7977 40.0218 39.8019 40.1551 39.1561 40.8051C38.5145 41.4467 38.377 42.4425 38.8312 43.2341L46.0182 55.8708L24.2696 61.8454C23.3905 62.087 22.7822 62.887 22.7822 63.7994C22.7822 64.7118 23.3905 65.5076 24.2696 65.7493L45.8432 71.6781L38.5645 84.4689C38.1104 85.2647 38.2479 86.2604 38.8895 86.902C39.5353 87.5437 40.5352 87.6853 41.3227 87.2354L53.9093 80.0733L59.8839 101.826C60.1256 102.697 60.9255 103.305 61.8338 103.305C62.7462 103.305 63.5462 102.697 63.7878 101.826L69.7749 80.0275L82.6908 87.377C83.0032 87.5478 83.349 87.6395 83.6949 87.6395C83.7074 87.6395 83.7157 87.6395 83.7324 87.6395C84.8531 87.6395 85.7531 86.7354 85.7531 85.6146C85.7531 85.1188 85.5739 84.6605 85.2739 84.3064L78.2369 71.9364L99.8605 65.9951C100.74 65.7534 101.348 64.9535 101.348 64.0452C101.348 63.137 100.735 62.3287 99.8563 62.087ZM25.3571 63.7869L25.857 63.6494L61.2505 64.1744L53.0677 71.4031L25.3571 63.7869ZM54.4176 54.8042L62.0296 27.0977L62.1671 27.5976L61.6463 62.9911L54.4176 54.8042ZM62.063 63.9202L61.9213 63.7744L62.063 63.9202ZM62.2004 64.8493L69.4291 73.028L61.813 100.734L61.6755 100.239L62.2004 64.8493ZM82.9991 85.0897L71.004 72.7363L70.6332 72.8405L75.5121 71.4989L83.3657 85.3022L82.9991 85.0897ZM98.2647 64.1869L62.8712 63.6619L71.054 56.4374L98.7605 64.0494L98.2647 64.1869ZM83.4949 42.5383L83.2865 42.905L70.7749 55.05L70.8207 55.225L69.5166 50.4878L83.4949 42.5383ZM53.2885 55.0542L48.7472 56.2999L40.9269 42.5508L41.2935 42.7591L53.2427 55.0667L53.2885 55.0542ZM54.326 77.361L40.631 85.148L40.8435 84.7814L53.0969 72.8863L54.326 77.361Z" fill="black"/>
<path d="M99.8573 62.087L78.217 56.1416L85.5665 43.2216C86.0165 42.43 85.8832 41.4342 85.2416 40.7926C84.5958 40.1468 83.5958 40.0135 82.8084 40.4635L69.9634 47.7713L63.9846 26.0144C63.7472 25.1353 62.9472 24.527 62.0348 24.527C61.1265 24.527 60.3265 25.1353 60.0849 26.0144L54.1478 47.6171L41.5903 40.476C40.7987 40.0218 39.8029 40.1551 39.1571 40.8051C38.5155 41.4467 38.378 42.4425 38.8321 43.2341L46.0192 55.8708L24.2706 61.8454C23.3915 62.087 22.7832 62.887 22.7832 63.7994C22.7832 64.7118 23.3915 65.5076 24.2706 65.7493L45.8442 71.6781L38.5655 84.4689C38.1114 85.2647 38.2488 86.2604 38.8905 86.902C39.5363 87.5437 40.5362 87.6853 41.3236 87.2354L53.9103 80.0733L59.8849 101.826C60.1266 102.697 60.9265 103.305 61.8348 103.305C62.7472 103.305 63.5472 102.697 63.7888 101.826L69.7759 80.0275L82.6917 87.377C83.0042 87.5478 83.35 87.6395 83.6958 87.6395C83.7083 87.6395 83.7167 87.6395 83.7333 87.6395C84.8541 87.6395 85.754 86.7354 85.754 85.6146C85.754 85.1188 85.5749 84.6605 85.2749 84.3064L78.2379 71.9364L99.8614 65.9951C100.741 65.7534 101.349 64.9535 101.349 64.0452C101.349 63.137 100.736 62.3287 99.8573 62.087ZM25.358 63.7869L25.858 63.6494L61.2515 64.1744L53.0687 71.4031L25.358 63.7869ZM54.4186 54.8042L62.0306 27.0977L62.1681 27.5976L61.6473 62.9911L54.4186 54.8042ZM62.0639 63.9202L61.9223 63.7744L62.0639 63.9202ZM62.2014 64.8493L69.4301 73.028L61.8139 100.734L61.6765 100.239L62.2014 64.8493ZM83 85.0897L71.005 72.7363L70.6342 72.8405L75.513 71.4989L83.3667 85.3022L83 85.0897ZM98.2657 64.1869L62.8722 63.6619L71.055 56.4374L98.7615 64.0494L98.2657 64.1869ZM83.4958 42.5383L83.2875 42.905L70.7759 55.05L70.8217 55.225L69.5176 50.4878L83.4958 42.5383ZM53.2895 55.0542L48.7481 56.2999L40.9278 42.5508L41.2945 42.7591L53.2437 55.0667L53.2895 55.0542ZM54.3269 77.361L40.632 85.148L40.8445 84.7814L53.0979 72.8863L54.3269 77.361Z" fill="black"/>
<path d="M111.659 71.9247H115.213C115.601 71.9247 115.927 71.9021 116.189 71.8569C116.451 71.8117 116.673 71.7439 116.854 71.6535C117.043 71.554 117.211 71.4229 117.355 71.2601C117.509 71.0884 117.654 70.8668 117.789 70.5956C117.925 70.3243 118.052 69.9853 118.169 69.5784C118.296 69.1625 118.449 68.5431 118.63 67.7203H120L119.729 73.1725H107.536V72.5079C108.097 72.3632 108.472 72.205 108.662 72.0332C108.852 71.8524 108.974 71.5992 109.028 71.2737C109.091 70.9482 109.123 70.4509 109.123 69.7818V58.0503C109.123 57.4264 109.1 56.9744 109.055 56.6941C109.01 56.4047 108.933 56.1832 108.825 56.0295C108.725 55.8668 108.589 55.7402 108.418 55.6498C108.246 55.5503 107.952 55.4418 107.536 55.3243V54.6597H113.246V55.3243C112.848 55.4328 112.563 55.5322 112.392 55.6226C112.229 55.704 112.093 55.817 111.985 55.9617C111.876 56.1064 111.795 56.3279 111.741 56.6263C111.686 56.9246 111.659 57.3993 111.659 58.0503L111.659 71.9247Z" fill="black"/>
<path d="M7.25592 73.3895C6.17093 73.3895 5.18087 73.2132 4.28574 72.8605C3.39966 72.4989 2.63564 71.9428 1.99368 71.1923C1.36077 70.4328 0.867998 69.4654 0.515373 68.29C0.171791 67.1146 0 65.7086 0 64.072C0 62.0558 0.307415 60.3243 0.922247 58.8776C1.53708 57.431 2.41412 56.3324 3.55337 55.5819C4.70166 54.8224 6.03078 54.4427 7.54074 54.4427C9.15015 54.4427 10.5019 54.7998 11.5959 55.5141C12.699 56.2194 13.5263 57.2637 14.0778 58.6471C14.6384 60.0214 14.9187 61.6986 14.9187 63.6787C14.9187 65.7945 14.6023 67.5802 13.9693 69.0359C13.3364 70.4916 12.4413 71.5811 11.284 72.3045C10.1357 73.0278 8.793 73.3895 7.25592 73.3895ZM2.79387 63.6923C2.79387 66.4681 3.19622 68.5793 4.00093 70.026C4.81468 71.4726 5.99913 72.196 7.5543 72.196C8.53984 72.196 9.37619 71.884 10.0634 71.2602C10.7505 70.6272 11.2659 69.705 11.6095 68.4934C11.9531 67.2818 12.1249 65.8668 12.1249 64.2484C12.1249 62.2773 11.9214 60.6453 11.5145 59.3523C11.1167 58.0503 10.5697 57.1055 9.87348 56.5177C9.17727 55.93 8.36805 55.6362 7.4458 55.6362C6.63205 55.6362 5.93132 55.8261 5.34361 56.2058C4.76495 56.5856 4.28122 57.1281 3.89243 57.8333C3.51268 58.5295 3.23239 59.3749 3.05156 60.3695C2.87976 61.3641 2.79387 62.4717 2.79387 63.6923Z" fill="black"/>
</g>
<defs>
<clipPath id="clip0">
<rect width="120" height="129.019" fill="white"/>
</clipPath>
</defs>
</svg>
